<?xml version="1.0" encoding="UTF-8"?>
<svg width="15px" height="15px" viewBox="0 0 15 15" version="1.1" xmlns="http://www.w3.org/2000/svg" xmlns:xlink="http://www.w3.org/1999/xlink">
    <!-- Generator: Sketch 52.5 (67469) - http://www.bohemiancoding.com/sketch -->
    <title>新增</title>
    <desc>Created with Sketch.</desc>
    <g id="首页" stroke="none" stroke-width="1" fill="none" fill-rule="evenodd">
        <g id="1-1发货管理-发货" transform="translate(-625.000000, -332.000000)" fill="#FFFFFF">
            <g id="新增" transform="translate(625.000000, 332.000000)">
                <g id="分组" transform="translate(0.727799, 0.761721)">
                    <path d="M13.0962796,3.62028536 L11.1981159,3.62028536 L11.1981159,5.5184321 C11.1981159,5.8327941 10.9427286,6.08816447 10.6284175,6.08816447 C10.3140724,6.08816447 10.0586851,5.8327941 10.0586851,5.5184321 L10.0586851,3.62028536 L8.16055534,3.62028536 C7.84549792,3.62028536 7.59082298,3.36559345 7.59082298,3.05056996 C7.59082298,2.73620795 7.84549792,2.48087151 8.16055534,2.48087151 L10.0586851,2.48087151 L10.0586851,0.582724773 C10.0586851,0.268362771 10.3140724,0.0136708629 10.6284175,0.0136708629 C10.9427286,0.0136708629 11.1981159,0.268362771 11.1981159,0.582724773 L11.1981159,2.48087151 L13.0962796,2.48087151 C13.4105907,2.48087151 13.6659781,2.73620795 13.6659781,3.05056996 C13.6659781,3.36559345 13.4105907,3.62028536 13.0962796,3.62028536 Z" id="路径"></path>
                    <path d="M12.0895715,6.56203118 L12.0895715,11.2316825 C12.0895715,11.8383058 11.5969286,12.3309318 10.9910346,12.3309318 L2.20867547,12.3309318 C1.60279843,12.3309318 1.11083394,11.8383058 1.11083394,11.2316825 L1.11083394,2.43731472 C1.11083394,1.83070834 1.60278147,1.33874385 2.20867547,1.33874385 L6.91654074,1.33874385 C7.21414491,1.33874385 7.46147558,1.09141317 7.46147558,0.79314751 C7.46079713,0.492897366 7.2168248,0.24889112 6.91520079,0.247568133 L2.20867547,0.247568133 C0.995564481,0.24889112 0.0122800307,1.23283706 0.0129584855,2.44598198 L0.0129584855,11.2403837 C0.0122800307,12.4535116 0.995564481,13.438153 2.20867547,13.4387975 L10.9910346,13.4387975 C12.204841,13.438153 13.18743,12.4535116 13.18743,11.2403837 L13.18743,6.56203118 C13.1860731,6.26176407 12.9434238,6.01777479 12.6418676,6.01643484 C12.344908,6.00839515 12.0976112,6.24232634 12.0895546,6.53991355 C12.0888591,6.54704304 12.0888591,6.55422327 12.0895546,6.56135274 L12.0895546,6.56203119 L12.0895715,6.56203118 Z" id="路径"></path>
                </g>
            </g>
        </g>
    </g>
</svg>