<?xml version="1.0" encoding="UTF-8"?>
<svg width="16px" height="12px" viewBox="0 0 16 12" version="1.1" xmlns="http://www.w3.org/2000/svg" xmlns:xlink="http://www.w3.org/1999/xlink">
    <!-- Generator: Sketch 52.5 (67469) - http://www.bohemiancoding.com/sketch -->
    <title>车辆信息-已选车辆</title>
    <desc>Created with Sketch.</desc>
    <g id="首页" stroke="none" stroke-width="1" fill="none" fill-rule="evenodd">
        <g id="1-1发货管理-发货" transform="translate(-345.000000, -754.000000)" fill="#59C960" fill-rule="nonzero">
            <g id="车辆信息-已选车辆" transform="translate(345.000000, 754.000000)">
                <path d="M14.0472553,3.09980617 C14.4076367,3.57574005 14.6758275,4.07587397 14.8518277,4.60827459 C15.0278279,5.14067521 15.1535423,5.66500915 15.228971,6.18127642 C15.2960187,6.69754369 15.3295425,7.17347757 15.3295425,7.61714476 C15.3295425,8.06081194 15.3211616,8.42381236 15.3211616,8.70614602 C15.3211616,8.76261276 15.3127806,8.82714616 15.3043996,8.89974625 C15.2960187,8.98041301 15.2792568,9.05301309 15.2541139,9.13367985 C15.228971,9.21434662 15.2038281,9.27888002 15.1703043,9.32728008 C15.1367804,9.38374681 15.0948756,9.40794684 15.0362089,9.40794684 L14.4579225,9.40794684 C14.4579225,9.10141315 14.4076367,8.83521284 14.3070652,8.61741259 C14.2064936,8.39961233 14.0723982,8.22214546 13.9131599,8.08501197 C13.7455407,7.94787848 13.5527786,7.85107836 13.3348735,7.78654495 C13.1169685,7.72201155 12.8823016,7.68974484 12.6308727,7.68974484 C12.3878248,7.68974484 12.1615388,7.7381449 11.9520148,7.82687833 C11.7424907,7.91561177 11.5664905,8.03661191 11.4072523,8.19794543 C11.248014,8.35121228 11.1306805,8.52867915 11.0384899,8.73841273 C10.9462993,8.94814631 10.9043945,9.15787988 10.9043945,9.38374681 L10.6529657,9.38374681 C10.4853464,9.38374681 10.3344891,9.32728008 10.2171556,9.20627994 C10.0914412,9.0852798 10.0327745,8.94814631 10.0327745,8.78681278 L10.0327745,2.22860515 C10.0327745,2.13180504 10.0662983,2.0108049 10.141727,1.88173808 C10.2087747,1.75267127 10.3009653,1.68007118 10.4015368,1.67200451 C10.7116324,1.64780448 11.0384899,1.65587115 11.3737284,1.70427121 C11.7173479,1.75267127 12.0442054,1.8414047 12.3794439,1.95433817 C12.7146823,2.06727163 13.0247779,2.22860515 13.3097307,2.4141387 C13.6030643,2.60773893 13.8544932,2.83360586 14.0472553,3.09980617 Z M13.8209694,6.02800957 C13.9383028,6.02800957 14.0304934,6.02800957 14.114303,6.0199429 C14.1981126,6.01187622 14.2400175,5.95540949 14.2400175,5.8505427 C14.2400175,5.83440935 14.2400175,5.818276 14.2316365,5.81020932 C14.2232555,5.80214264 14.2232555,5.78600929 14.2232555,5.76987594 C14.122684,5.32620876 14.0053505,4.89867493 13.8796361,4.48727445 C13.7539217,4.07587397 13.5527786,3.72094022 13.2594449,3.43053989 C13.0666828,3.26113969 12.8655397,3.13207287 12.6476347,3.05947279 C12.4297296,2.97880603 12.2285865,2.93040597 12.0358244,2.90620594 C11.8430623,2.88200591 11.683824,2.87393924 11.5497286,2.88200591 C11.4156332,2.89007259 11.3485855,2.89813927 11.3402046,2.89813927 C11.2144901,2.89813927 11.1139186,2.93847265 11.030109,3.02720608 C10.9462993,3.11593952 10.9043945,3.20467296 10.9043945,3.30953974 L10.9043945,4.55180786 C10.9043945,4.91480828 10.9127755,5.31814208 10.9211565,5.76180926 L10.9211565,5.77794262 C10.9211565,5.82634267 10.9546803,5.87474273 11.021728,5.93927614 C11.0887757,6.00380955 11.1558234,6.03607625 11.2228711,6.03607625 L13.8209694,6.02800957 Z M9.12763056,0.0102692386 L9.15277344,8.87554622 C9.15277344,9.02881307 9.10248767,9.15787988 8.99353516,9.25468 C8.88458265,9.35148011 8.75886822,9.40794684 8.6080109,9.40794684 L4.74438736,9.40794684 C4.74438736,8.87554622 4.601911,8.44801239 4.31695829,8.1414787 C4.03200558,7.83494501 3.58781459,7.68167817 2.98438531,7.68167817 C2.40609892,7.68167817 1.97028889,7.82687833 1.66019329,8.109212 C1.3500977,8.39154566 1.19924038,8.82714616 1.19924038,9.40794684 L0.872382854,9.40794684 C0.713144574,9.40794684 0.579049179,9.35954678 0.478477634,9.27081335 C0.377906088,9.18207991 0.319239353,9.04494642 0.319239353,8.87554622 L0.319239353,1.79300465 C0.319239353,1.57520439 0.361144164,1.36547082 0.444953785,1.15573724 C0.528763407,0.946003661 0.646096876,0.752403436 0.805335157,0.583003238 C0.964573438,0.413603041 1.14057364,0.268402872 1.3500977,0.17160276 C1.55962175,0.066735971 1.78590773,0.0183359147 2.02895563,0.0183359147 L9.12763056,0.0102692386 Z M12.7063014,8.56094586 C12.9493493,8.56094586 13.1672543,8.64967929 13.3432545,8.81907949 C13.5192547,8.98847969 13.6114453,9.19821326 13.6114453,9.43214687 C13.6114453,9.67414715 13.5192547,9.88388073 13.3432545,10.0613476 C13.1672543,10.2307478 12.9493493,10.3194812 12.7063014,10.3194812 C12.4548725,10.3194812 12.2369675,10.2307478 12.0609673,10.0613476 C11.8849671,9.8919474 11.8011575,9.68221383 11.8011575,9.43214687 C11.8011575,9.19821326 11.8849671,8.98847969 12.0609673,8.81907949 C12.2369675,8.64967929 12.4464916,8.56094586 12.7063014,8.56094586 Z M2.97600435,8.5448125 C3.22743321,8.5448125 3.44533823,8.63354594 3.62133843,8.80294614 C3.79733864,8.97234633 3.88114826,9.18207991 3.88114826,9.43214687 C3.88114826,9.66608047 3.79733864,9.87581405 3.62133843,10.0452142 C3.44533823,10.2146144 3.23581418,10.3033479 2.97600435,10.3033479 C2.72457549,10.3033479 2.50667047,10.2146144 2.33067027,10.0452142 C2.15467006,9.87581405 2.07086044,9.66608047 2.07086044,9.43214687 C2.07086044,9.19014659 2.15467006,8.98041301 2.33067027,8.80294614 C2.50667047,8.63354594 2.71619452,8.5448125 2.97600435,8.5448125 Z" id="形状"></path>
            </g>
        </g>
    </g>
</svg>