<?xml version="1.0" encoding="UTF-8"?>
<svg width="15px" height="15px" viewBox="0 0 15 15" version="1.1" xmlns="http://www.w3.org/2000/svg" xmlns:xlink="http://www.w3.org/1999/xlink">
    <!-- Generator: Sketch 52.5 (67469) - http://www.bohemiancoding.com/sketch -->
    <title>选择车辆</title>
    <desc>Created with Sketch.</desc>
    <g id="首页" stroke="none" stroke-width="1" fill="none" fill-rule="evenodd">
        <g id="1-1发货管理-发货" transform="translate(-1060.000000, -715.000000)" fill="#59C960" fill-rule="nonzero">
            <g id="选择车辆" transform="translate(1060.000000, 715.000000)">
                <path d="M4.79260812,11.2468783 L1.79343959,11.2468783 C1.17337051,11.2468783 0.668760544,10.7422684 0.668760544,10.1221846 L0.668760544,1.12469369 C0.668760544,0.504624611 1.17337051,1.46484545e-05 1.79343959,1.46484545e-05 L12.2905368,1.46484545e-05 C12.9106058,1.46484545e-05 13.4152158,0.504624611 13.4152158,1.12469369 L13.4152158,6.37323496 C13.4152158,6.58017367 13.2472566,6.74813285 13.0403179,6.74813285 C12.8333645,6.74813285 12.66542,6.58017367 12.66542,6.37323496 L12.66542,1.12469369 C12.66542,0.917740326 12.4974608,0.749795794 12.2905221,0.749795794 L1.79342494,0.749795794 C1.58648622,0.749795794 1.41852704,0.917740326 1.41852704,1.12469369 L1.41852704,10.1221846 C1.41852704,10.329138 1.58648622,10.4970972 1.79342494,10.4970972 L4.79259347,10.4970972 C4.99954683,10.4970972 5.16749136,10.6650417 5.16749136,10.8719951 C5.16747672,11.0789191 4.99953218,11.246893 4.79259347,11.246893 L4.79260812,11.2468783 Z M10.4160473,14.995828 C10.2675852,14.995828 10.1266378,14.9065896 10.0681318,14.7604127 L8.79573777,11.5797937 L6.57410921,14.1185906 C6.47139425,14.2363056 6.306438,14.2775557 6.16021713,14.2227998 C6.01399626,14.1680438 5.91727251,14.0278435 5.91727251,13.871896 L5.91727251,2.6250177 C5.91727251,2.47655562 6.0050021,2.34234648 6.14072004,2.28236105 C6.27643797,2.22237563 6.43462663,2.24787859 6.5448709,2.34759062 L14.7925807,9.84550462 C14.9072927,9.94971373 14.9462869,10.1139376 14.8900369,10.2579026 C14.8338014,10.4018529 14.6950806,10.4978296 14.5406273,10.4978296 L11.3457554,10.4978296 L12.6399024,13.7324134 C12.7171144,13.9243668 12.6234082,14.1425702 12.4307078,14.2197675 L10.556233,14.9695633 C10.5105005,14.9875663 10.4632446,14.9965604 10.4167651,14.9965604 L10.416018,14.995828 L10.4160473,14.995828 Z M8.91647034,10.4970972 C8.93747622,10.4970972 8.95845281,10.4985913 8.97945869,10.5023267 C9.10842368,10.5240796 9.21563572,10.6118092 9.26437113,10.7325125 L10.6244948,14.1335614 L11.803168,13.6619397 L10.4430444,10.2608908 C10.3965648,10.1454317 10.4108324,10.0142255 10.4805444,9.91149591 C10.5502857,9.8087663 10.6664773,9.74653966 10.7909452,9.74653966 L13.5704308,9.74653966 L6.6670976,3.47077552 L6.6670976,12.8724173 L8.63457548,10.6237917 C8.70654333,10.5420533 8.80927295,10.4955737 8.91649963,10.4955737 L8.91649963,10.4970825 L8.91647034,10.4970972 Z" id="形状"></path>
            </g>
        </g>
    </g>
</svg>