<?xml version="1.0" encoding="UTF-8"?>
<svg width="22px" height="22px" viewBox="0 0 22 22" version="1.1" xmlns="http://www.w3.org/2000/svg" xmlns:xlink="http://www.w3.org/1999/xlink">
    <!-- Generator: Sketch 52.5 (67469) - http://www.bohemiancoding.com/sketch -->
    <title>关闭窗口</title>
    <desc>Created with Sketch.</desc>
    <g id="首页" stroke="none" stroke-width="1" fill="none" fill-rule="evenodd">
        <g id="1-2-4删除货场" transform="translate(-834.000000, -321.000000)" fill="#999999" fill-rule="nonzero">
            <g id="分组-30-copy-2" transform="translate(487.000000, 301.000000)">
                <g id="分组-30-copy">
                    <g id="分组-29">
                        <g id="关--闭" transform="translate(347.000000, 20.000000)">
                            <path d="M11.0000128,21.8279356 C5.01901365,21.8279356 0.172004106,16.9814416 0.172004106,10.9999269 C0.172004106,5.01892772 5.01901365,0.171918169 11.0000128,0.171918169 C16.9815276,0.171918169 21.8280215,5.01892772 21.8280215,10.9999269 C21.8280215,16.9814416 16.9815276,21.8279356 11.0000128,21.8279356 Z M11.0000128,1.702918 C5.87849707,1.702918 1.70300393,5.87841114 1.70300393,10.9999269 C1.70300393,16.1214426 5.87849707,20.2969357 11.0000128,20.2969357 C16.1215285,20.2969357 20.2970217,16.1214426 20.2970217,10.9999269 C20.2970217,5.87841114 16.1215285,1.702918 11.0000128,1.702918 Z M11.7905098,10.9999269 L15.9845225,6.8064298 C16.1905149,6.59992174 16.1905149,6.25642916 15.9845225,6.01541716 L15.9500186,5.98142884 C15.7401542,5.77534619 15.4038894,5.77534619 15.1940255,5.98142882 L11.0000128,10.2094298 L6.80651575,6.01541714 C6.5965891,5.80899675 6.25993328,5.80899675 6.05000706,6.01541714 L6.01550311,6.04992109 C5.80951068,6.25642914 5.80951068,6.59992173 6.01550311,6.8404181 L10.2100314,10.9999268 L6.01599725,15.1939395 C5.81000482,15.399932 5.81000482,15.7439402 6.01599725,15.9839209 L6.0505012,16.0189405 C6.25700925,16.2249329 6.60050184,16.2249329 6.80700989,16.0189405 L11.0000128,11.7899082 L15.1940255,15.9839209 C15.4000179,16.1899134 15.7440261,16.1899134 15.9500186,15.9839209 L15.9845225,15.949417 C16.190515,15.7434031 16.190515,15.3994163 15.9845225,15.15892 L11.7899942,10.9999268 L11.7905098,10.9999269 Z" id="形状"></path>
                        </g>
                    </g>
                </g>
            </g>
        </g>
    </g>
</svg>