<?xml version="1.0" encoding="UTF-8"?>
<svg width="15px" height="15px" viewBox="0 0 15 15" version="1.1" xmlns="http://www.w3.org/2000/svg" xmlns:xlink="http://www.w3.org/1999/xlink">
    <!-- Generator: Sketch 52.5 (67469) - http://www.bohemiancoding.com/sketch -->
    <title>删 除</title>
    <desc>Created with Sketch.</desc>
    <g id="首页" stroke="none" stroke-width="1" fill="none" fill-rule="evenodd">
        <g id="1-2发货管理-货场管理" transform="translate(-560.000000, -258.000000)" fill="#18751D" fill-rule="nonzero" stroke="#59C960" stroke-width="0.2">
            <g id="分组-23" transform="translate(224.000000, 252.000000)">
                <g id="删-除" transform="translate(336.000000, 6.000000)">
                    <path d="M11.4720286,12.5120526 C11.4720286,12.9878103 11.0847849,13.3750541 10.6090271,13.3750541 L4.39099419,13.3750541 C3.91523648,13.3750541 3.5279927,12.9878103 3.5279927,12.5120526 L3.5279927,3.35096124 L11.4720286,3.35096124 L11.4720286,12.5120526 Z M5.25399568,1.80197181 C5.25399568,1.70239466 5.33144462,1.62494572 5.43102177,1.62494572 L9.58007119,1.62494572 C9.67964834,1.62494572 9.75709728,1.70239466 9.75709728,1.80197181 L9.75709728,2.3219856 L5.25399568,2.3219856 L5.25400284,1.80197181 L5.25399568,1.80197181 Z M14.0610421,2.3219856 L10.7860676,2.3219856 L10.7860676,1.80197181 C10.7860676,1.13812354 10.2439248,0.595982613 9.58007835,0.595982613 L5.43102893,0.595982613 C4.76718066,0.595982613 4.22503973,1.13812533 4.22503973,1.80197181 L4.22503973,2.3219856 L0.939000753,2.3219856 C0.651333589,2.3219856 0.418986965,2.55433222 0.418986965,2.84199939 C0.418986965,3.12966655 0.651333589,3.36201318 0.939000753,3.36201318 L2.48797765,3.36201318 L2.48797765,12.5120401 C2.48797765,13.5631321 3.33991468,14.4150745 4.39101209,14.4150745 L10.609045,14.4150745 C11.6601371,14.4150745 12.5120795,13.5631375 12.5120795,12.5120401 L12.5120795,3.35094871 L14.0610564,3.35094871 C14.3487236,3.35094871 14.5810702,3.11860209 14.5810702,2.83093492 C14.5810702,2.54326776 14.3487236,2.3219856 14.0610564,2.3219856 L14.0610421,2.3219856 Z M7.50001067,11.815011 C7.78767783,11.815011 8.02002446,11.5826643 8.02002446,11.2949972 L8.02002446,5.76294322 C8.02002446,5.47527605 7.78767783,5.24292943 7.50001067,5.24292943 C7.2123435,5.24292943 6.97999688,5.47527605 6.97999688,5.76294322 L6.97999688,11.2949972 C6.97999688,11.5826643 7.2123435,11.815011 7.50001067,11.815011 Z M5.07696423,11.815011 C5.36463139,11.815011 5.59697802,11.5826643 5.59697802,11.2949972 L5.59697802,5.76294322 C5.59697802,5.47527605 5.36463139,5.24292943 5.07696423,5.24292943 C4.78929706,5.24292943 4.55695044,5.47527605 4.55695044,5.76294322 L4.55695044,11.2949972 C4.56801456,11.5826643 4.80036153,11.815011 5.07696423,11.815011 Z M9.92305711,11.815011 C10.2107243,11.815011 10.4430709,11.5826643 10.4430709,11.2949972 L10.4430709,5.76294322 C10.4430709,5.47527605 10.2107243,5.24292943 9.92305711,5.24292943 C9.63538994,5.24292943 9.40304332,5.47527605 9.40304332,5.76294322 L9.40304332,11.2949972 C9.40304332,11.5826643 9.63538994,11.815011 9.92305711,11.815011 Z" id="形状"></path>
                </g>
            </g>
        </g>
    </g>
</svg>