<?xml version="1.0" encoding="UTF-8"?>
<svg width="21px" height="17px" viewBox="0 0 21 17" version="1.1" xmlns="http://www.w3.org/2000/svg" xmlns:xlink="http://www.w3.org/1999/xlink">
    <!-- Generator: Sketch 52.5 (67469) - http://www.bohemiancoding.com/sketch -->
    <title>删除车辆</title>
    <desc>Created with Sketch.</desc>
    <g id="首页" stroke="none" stroke-width="1" fill="none" fill-rule="evenodd">
        <g id="1-1-6选择车辆" transform="translate(-314.000000, -167.000000)">
            <g id="分组-9" transform="translate(219.000000, 167.000000)">
                <g id="分组-3" transform="translate(95.000000, 0.000000)">
                    <path d="M0.559003764,1.33226763e-15 L18.5590038,0 C19.6635733,-2.02906125e-16 20.5590038,0.8954305 20.5590038,2 L20.5590038,17 L0.559003764,1.33226763e-15 Z" id="矩形-copy-3" fill="#C7F1A8"></path>
                    <g id="删除车辆" transform="translate(11.000000, 2.000000)" fill="#F6FFED" fill-rule="nonzero">
                        <path d="M7.20134735,5.95277721 L6.41783277,6.73629179 C6.3089928,6.84513176 6.17838913,6.89955175 6.02604325,6.89955175 C5.87369737,6.89955175 5.74313667,6.84515324 5.6342967,6.73631327 L3.93664238,5.03863747 L2.23898806,6.73631327 C2.13014809,6.84513176 1.99958739,6.89955175 1.84724151,6.89955175 C1.69489563,6.89955175 1.56429196,6.84515324 1.45545199,6.73631327 L0.67193741,5.95277721 C0.56309744,5.8439802 0.508741908,5.71333357 0.508698939,5.56103066 C0.508698939,5.40866329 0.563075955,5.27808111 0.67193741,5.16926262 L2.36959173,3.4716083 L0.67193741,1.77395398 C0.56309744,1.6651355 0.508698939,1.53453183 0.508698939,1.38218595 C0.508741908,1.22984007 0.563075955,1.0992364 0.67193741,0.990439401 L1.45545199,0.206881848 C1.56429196,0.0980848468 1.69489563,0.0436433772 1.84724151,0.0436433772 C1.99958739,0.0436433772 2.13014809,0.0980633624 2.23898806,0.206881848 L3.93664238,1.90455765 L5.6342967,0.206881848 C5.74313667,0.0980848468 5.87374034,0.0436433772 6.02604325,0.0436433772 C6.17841061,0.0436433772 6.3089928,0.0980633624 6.41783277,0.206924817 L7.20134735,0.990439401 C7.31014435,1.0992364 7.36458582,1.22984007 7.36458582,1.38218595 C7.36458582,1.53453183 7.31016584,1.6651355 7.20134735,1.77395398 L5.50369303,3.4716083 L7.20134735,5.16926262 C7.31014435,5.27808111 7.36458582,5.40868478 7.36458582,5.56103066 C7.36458582,5.71333357 7.31016584,5.84395872 7.20134735,5.95277721 Z" id="形状"></path>
                    </g>
                </g>
            </g>
        </g>
    </g>
</svg>