<?xml version="1.0" encoding="UTF-8"?>
<svg width="15px" height="15px" viewBox="0 0 15 15" version="1.1" xmlns="http://www.w3.org/2000/svg" xmlns:xlink="http://www.w3.org/1999/xlink">
    <!-- Generator: Sketch 52.5 (67469) - http://www.bohemiancoding.com/sketch -->
    <title>编辑</title>
    <desc>Created with Sketch.</desc>
    <g id="首页" stroke="none" stroke-width="1" fill="none" fill-rule="evenodd">
        <g id="1-2发货管理-货场管理" transform="translate(-527.000000, -258.000000)" fill="#FFFFFF">
            <g id="分组-23" transform="translate(224.000000, 252.000000)">
                <g id="编辑" transform="translate(303.000000, 6.000000)">
                    <path d="M13.3003802,12.3820202 L0.313060402,12.3820202 C0.140718149,12.3820202 0.000602497304,12.2433057 0.000602497304,12.0695623 C0.000602497304,11.89722 0.140718149,11.7571044 0.313060402,11.7571044 L13.3003802,11.7571044 C13.5343733,11.7571044 13.7249306,11.5357216 13.7249306,11.2624961 L13.7249306,9.98604253 C13.7249306,9.71281701 13.5343733,9.49143428 13.3003802,9.49143428 L7.17452389,9.49143428 C7.00218164,9.49143428 6.86206598,9.35131863 6.86206598,9.17897637 C6.86206598,9.00663412 7.00218164,8.86651847 7.17452389,8.86651847 L13.3003802,8.86651847 C13.8790578,8.86651847 14.3484453,9.3681325 14.3484453,9.98464137 L14.3484453,11.261095 C14.3484453,11.8804061 13.8776567,12.3820202 13.3003802,12.3820202 Z" id="路径"></path>
                    <path d="M2.73706118,10.7496728 L2.70483458,10.7496728 L1.05567336,10.6964289 C0.512024628,10.679615 0.0720614799,10.2396519 0.0552476017,9.69600313 L0.000602497304,8.04544075 C-0.00920559835,7.76100597 0.101485767,7.48217583 0.303252306,7.28040929 L7.27820947,0.306853278 C7.68034139,-0.0966798 8.33608265,-0.0966798 8.74101688,0.306853278 L10.4434221,2.00925845 C10.8469551,2.41279153 10.8469551,3.06853278 10.4434221,3.47206586 L3.46846489,10.447023 C3.27510529,10.6403826 3.01028671,10.7496728 2.73706118,10.7496728 Z M2.72445078,10.124757 C2.8365433,10.1177512 2.94863582,10.0841235 3.02850174,10.0042576 L10.0020577,3.0293004 C10.1617896,2.86956856 10.1617896,2.60895344 10.0020577,2.4492216 L8.29965258,0.748217583 C8.13992073,0.588485739 7.87930562,0.588485739 7.71957378,0.748217583 L0.74461661,7.72177359 C0.664750689,7.80163951 0.621314836,7.91233088 0.624117149,8.02582456 L0.677361097,9.67498578 C0.68436688,9.89076389 0.859511445,10.0645073 1.07388839,10.0715131 L2.72445078,10.124757 Z" id="形状" fill-rule="nonzero"></path>
                    <path d="M4.52493691,9.26024345 C4.44507098,9.26024345 4.36520506,9.22941801 4.30495533,9.16916828 L1.58110705,6.44532 C1.45920644,6.32341938 1.45920644,6.12585631 1.58110705,6.0039557 C1.70300767,5.88205508 1.90057074,5.88205508 2.02247136,6.0039557 L4.74631964,8.72780397 C4.86822025,8.84970459 4.86822025,9.04726766 4.74631964,9.16916828 C4.68466875,9.23081917 4.60480283,9.26024345 4.52493691,9.26024345 Z" id="路径"></path>
                </g>
            </g>
        </g>
    </g>
</svg>