<?xml version="1.0" standalone="no"?>
<!DOCTYPE svg PUBLIC "-//W3C//DTD SVG 20010904//EN"
 "http://www.w3.org/TR/2001/REC-SVG-20010904/DTD/svg10.dtd">
<svg version="1.0" xmlns="http://www.w3.org/2000/svg"
 width="176.000000pt" height="168.000000pt" viewBox="0 0 176.000000 168.000000"
 preserveAspectRatio="xMidYMid meet">

<g transform="translate(0.000000,168.000000) scale(0.100000,-0.100000)"
fill="#000000" stroke="none">
<path d="M1 1278 c0 -226 4 -394 9 -382 4 11 32 56 62 100 l55 80 289 -96
c247 -83 289 -100 292 -117 3 -19 -25 -32 -250 -121 -296 -116 -326 -127 -331
-121 -45 58 -104 151 -113 178 -11 30 -13 -31 -14 -381 l0 -418 880 0 880 0 0
840 0 840 -880 0 -880 0 1 -402z m740 373 c30 -10 71 -21 92 -25 l39 -7 -7
-177 c-18 -415 -18 -417 -41 -417 -15 0 -75 64 -211 224 l-190 225 70 83 c39
46 82 90 96 98 36 20 88 18 152 -4z m435 0 c17 -10 48 -41 69 -67 22 -27 51
-62 66 -79 l27 -30 -189 -225 c-144 -172 -194 -225 -211 -225 -26 0 -25 -4
-42 416 l-8 176 74 18 c40 9 82 21 93 26 35 14 89 10 121 -10z m-596 -426 c90
-126 165 -240 168 -252 3 -17 0 -23 -14 -23 -11 0 -150 32 -310 72 l-290 72 4
85 c7 167 30 202 157 245 44 14 87 31 95 36 8 5 18 6 21 2 3 -4 80 -110 169
-237z m874 199 c126 -43 156 -79 156 -184 1 -36 4 -84 9 -106 l8 -42 -299 -76
c-164 -42 -303 -74 -308 -71 -6 4 -10 13 -10 22 0 13 282 421 328 476 9 10 22
15 31 11 9 -3 47 -17 85 -30z m227 -427 c68 -104 72 -115 67 -167 -4 -37 -16
-64 -56 -121 -29 -40 -52 -79 -52 -86 0 -7 -2 -13 -5 -13 -3 0 -136 52 -296
116 -258 104 -290 119 -287 137 3 18 43 34 283 113 154 51 285 92 290 93 6 0
31 -32 56 -72z"/>
</g>
</svg>
